<svg width="89" height="51" viewBox="0 0 89 51" fill="none" xmlns="http://www.w3.org/2000/svg">
    <g filter="url(#filter0_d_170_431)">
        <rect x="9.5" y="4" width="70" height="43" rx="20" fill="#BDEDF5"/>
    </g>
    <g transform="translate(22, 10)">
        <path d="M46.125 13.0742C47.6432 14.2393 49 17.1729 49 18.9804C49 19.5435 48.6 20 48.1066 20H47.5625M41.8125 8.2985C42.7946 7.7149 43.4554 6.6242 43.4554 5.375C43.4554 4.1258 42.7946 3.0351 41.8125 2.4515M26.8934 20H42.6304C43.1238 20 43.5238 19.5435 43.5238 18.9804C43.5238 15.4408 40.6449 12.5714 34.7619 12.5714C28.8789 12.5714 26 15.4408 26 18.9804C26 19.5435 26.4 20 26.8934 20ZM38.0476 5.375C38.0476 7.239 36.5766 8.75 34.7619 8.75C32.9473 8.75 31.4762 7.239 31.4762 5.375C31.4762 3.511 32.9473 2 34.7619 2C36.5766 2 38.0476 3.511 38.0476 5.375Z" stroke="black" stroke-width="2" stroke-linecap="round"/>
    </g>
    <defs>
        <filter id="filter0_d_170_431" x="0" y="0" width="89" height="51" filterUnits="userSpaceOnUse" color-interpolation-filters="sRGB">
            <feFlood flood-opacity="0" result="BackgroundImageFix"/>
            <feColorMatrix in="SourceAlpha" type="matrix" values="0 0 0 0 0 0 0 0 0 0 0 0 0 0 0 0 0 0 127 0" result="hardAlpha"/>
            <feOffset dx="4" dy="4"/>
            <feGaussianBlur stdDeviation="2"/>
            <feComposite in2="hardAlpha" operator="out"/>
            <feColorMatrix type="matrix" values="0 0 0 0 0 0 0 0 0 0 0 0 0 0 0 0 0 0 0.25 0"/>
            <feBlend mode="normal" in2="BackgroundImageFix" result="effect1_dropShadow_170_431"/>
            <feBlend mode="normal" in="SourceGraphic" in2="effect1_dropShadow_170_431" result="shape"/>
        </filter>
    </defs>
</svg>